<?xml version="1.0" encoding="UTF-8" standalone="no"?>
<!-- Created with Inkscape (http://www.inkscape.org/) -->

<svg
   xmlns:dc="http://purl.org/dc/elements/1.1/"
   xmlns:cc="http://creativecommons.org/ns#"
   xmlns:rdf="http://www.w3.org/1999/02/22-rdf-syntax-ns#"
   xmlns:svg="http://www.w3.org/2000/svg"
   xmlns="http://www.w3.org/2000/svg"
   xmlns:sodipodi="http://sodipodi.sourceforge.net/DTD/sodipodi-0.dtd"
   xmlns:inkscape="http://www.inkscape.org/namespaces/inkscape"
   width="744.09448819"
   height="1052.3622047"
   id="svg2"
   version="1.1"
   inkscape:version="0.48.4 r9939"
   sodipodi:docname="logo5.svg">
  <defs
     id="defs4" />
  <sodipodi:namedview
     id="base"
     pagecolor="#ffffff"
     bordercolor="#666666"
     borderopacity="1.0"
     inkscape:pageopacity="0.0"
     inkscape:pageshadow="2"
     inkscape:zoom="1.4"
     inkscape:cx="535.87372"
     inkscape:cy="451.59534"
     inkscape:document-units="px"
     inkscape:current-layer="layer1"
     showgrid="false"
     inkscape:window-width="1920"
     inkscape:window-height="1174"
     inkscape:window-x="0"
     inkscape:window-y="0"
     inkscape:window-maximized="1">
    <inkscape:grid
       type="xygrid"
       id="grid5423" />
  </sodipodi:namedview>
  <metadata
     id="metadata7">
    <rdf:RDF>
      <cc:Work
         rdf:about="">
        <dc:format>image/svg+xml</dc:format>
        <dc:type
           rdf:resource="http://purl.org/dc/dcmitype/StillImage" />
        <dc:title></dc:title>
      </cc:Work>
    </rdf:RDF>
  </metadata>
  <g
     inkscape:label="Layer 1"
     inkscape:groupmode="layer"
     id="layer1">
    <path
       sodipodi:type="arc"
       style="fill:#a793ac;fill-opacity:1;stroke:none"
       id="path3795-7-6"
       sodipodi:cx="300.01532"
       sodipodi:cy="676.08038"
       sodipodi:rx="10.101525"
       sodipodi:ry="9.0913725"
       d="m 310.11685,676.08038 a 10.101525,9.0913725 0 1 1 -20.20306,0 10.101525,9.0913725 0 1 1 20.20306,0 z"
       transform="matrix(19.921173,0,0,21.740982,-5589.4355,-14000.575)" />
    <g
       id="g5476"
       transform="translate(2,-8)">
      <g
         id="g5499"
         transform="translate(0,-12)">
        <path
           style="fill:none;stroke:#000000;stroke-width:10;stroke-linecap:butt;stroke-linejoin:miter;stroke-miterlimit:4;stroke-opacity:1;stroke-dasharray:none"
           d="m 415,864.21935 c -8.76948,-15.3476 -16.78296,-90.1958 53.73472,-100.7046 41.6537,-5.5418 61.51711,-15.121 79.26528,-29.2954 l -305,0 0,15 c 60.21068,22.5113 97.30525,17.6562 70,115"
           id="path5418"
           inkscape:connector-curvature="0"
           sodipodi:nodetypes="cccccc" />
        <path
           sodipodi:nodetypes="cc"
           style="fill:none;stroke:#a793ac;stroke-width:15;stroke-linecap:butt;stroke-linejoin:miter;stroke-miterlimit:4;stroke-opacity:1;stroke-dasharray:none"
           d="m 565,732.36218 -360,0"
           id="path5474"
           inkscape:connector-curvature="0" />
      </g>
    </g>
    <g
       id="g5503"
       transform="translate(7.0585439,-3.5355339)">
      <path
         sodipodi:nodetypes="cc"
         inkscape:connector-curvature="0"
         id="path3791"
         d="m 292.70123,674.68195 c 19.61613,-104.16523 153.07198,-70.66945 156.19483,3.28298"
         style="fill:none;stroke:#000000;stroke-width:10;stroke-linecap:butt;stroke-linejoin:miter;stroke-miterlimit:4;stroke-opacity:1;stroke-dasharray:none" />
      <path
         transform="matrix(0.9,0,0,0.52777776,130.26686,320.0266)"
         d="m 310.11685,676.08038 c 0,5.02103 -4.52261,9.09138 -10.10153,9.09138 -5.57892,0 -10.10153,-4.07035 -10.10153,-9.09138 0,-5.02102 4.52261,-9.09137 10.10153,-9.09137 5.57892,0 10.10153,4.07035 10.10153,9.09137 z"
         sodipodi:ry="9.0913725"
         sodipodi:rx="10.101525"
         sodipodi:cy="676.08038"
         sodipodi:cx="300.01532"
         id="path3795"
         style="fill:#000000;fill-opacity:1;stroke:none"
         sodipodi:type="arc" />
      <path
         transform="matrix(0.9,0,0,0.52777776,70.542238,320.02656)"
         d="m 310.11685,676.08038 c 0,5.02103 -4.52261,9.09138 -10.10153,9.09138 -5.57892,0 -10.10153,-4.07035 -10.10153,-9.09138 0,-5.02102 4.52261,-9.09137 10.10153,-9.09137 5.57892,0 10.10153,4.07035 10.10153,9.09137 z"
         sodipodi:ry="9.0913725"
         sodipodi:rx="10.101525"
         sodipodi:cy="676.08038"
         sodipodi:cx="300.01532"
         id="path3795-7"
         style="fill:#000000;fill-opacity:1;stroke:none"
         sodipodi:type="arc" />
    </g>
    <path
       style="fill:none;stroke:#000000;stroke-width:29.74915123;stroke-linecap:butt;stroke-linejoin:miter;stroke-miterlimit:4;stroke-opacity:1;stroke-dasharray:none"
       d="m 137.86044,679.38038 c 137.8567,26.27013 371.12147,26.35162 512.61193,-0.032"
       id="path3771"
       inkscape:connector-curvature="0"
       sodipodi:nodetypes="cc" />
    <path
       sodipodi:nodetypes="csssc"
       inkscape:connector-curvature="0"
       id="path5541"
       d="m 592.43727,718.7928 c 9.21434,-3.02855 20.79103,-4.4923 29.98651,-9.63192 2.9011,-1.62151 11.65335,-5.90894 18.85124,-12.27889 4.98954,-4.4156 5.91169,-5.82814 10.00719,-10.45246 7.41296,-8.37014 13.42961,-20.8872 14.61296,-33.74618"
       style="fill:none;stroke:#ffffff;stroke-width:29.74915123;stroke-linecap:butt;stroke-linejoin:miter;stroke-miterlimit:1;stroke-opacity:1;stroke-dasharray:none" />
  </g>
</svg>
