<?xml version="1.0" encoding="UTF-8" standalone="no"?>
<!-- Created with Inkscape (http://www.inkscape.org/) -->

<svg
   xmlns:dc="http://purl.org/dc/elements/1.1/"
   xmlns:cc="http://creativecommons.org/ns#"
   xmlns:rdf="http://www.w3.org/1999/02/22-rdf-syntax-ns#"
   xmlns:svg="http://www.w3.org/2000/svg"
   xmlns="http://www.w3.org/2000/svg"
   xmlns:sodipodi="http://sodipodi.sourceforge.net/DTD/sodipodi-0.dtd"
   xmlns:inkscape="http://www.inkscape.org/namespaces/inkscape"
   width="744.09448819"
   height="1052.3622047"
   id="svg2"
   version="1.1"
   inkscape:version="0.48.4 r9939"
   sodipodi:docname="logo1.svg">
  <defs
     id="defs4" />
  <sodipodi:namedview
     id="base"
     pagecolor="#ffffff"
     bordercolor="#666666"
     borderopacity="1.0"
     inkscape:pageopacity="0.0"
     inkscape:pageshadow="2"
     inkscape:zoom="1.4"
     inkscape:cx="261.09411"
     inkscape:cy="345.79386"
     inkscape:document-units="px"
     inkscape:current-layer="layer1"
     showgrid="false"
     inkscape:window-width="1920"
     inkscape:window-height="1174"
     inkscape:window-x="0"
     inkscape:window-y="0"
     inkscape:window-maximized="1" />
  <metadata
     id="metadata7">
    <rdf:RDF>
      <cc:Work
         rdf:about="">
        <dc:format>image/svg+xml</dc:format>
        <dc:type
           rdf:resource="http://purl.org/dc/dcmitype/StillImage" />
        <dc:title></dc:title>
      </cc:Work>
    </rdf:RDF>
  </metadata>
  <g
     inkscape:label="Layer 1"
     inkscape:groupmode="layer"
     id="layer1">
    <path
       sodipodi:type="arc"
       style="fill:#770000;fill-opacity:1;stroke:none"
       id="path3795-7-6"
       sodipodi:cx="300.01532"
       sodipodi:cy="676.08038"
       sodipodi:rx="10.101525"
       sodipodi:ry="9.0913725"
       d="m 310.11685,676.08038 a 10.101525,9.0913725 0 1 1 -20.20306,0 10.101525,9.0913725 0 1 1 20.20306,0 z"
       transform="matrix(19.921173,0,0,21.740982,-5598.7999,-14000.575)" />
    <path
       style="fill:none;stroke:#000000;stroke-width:0.87045002;stroke-linecap:square;stroke-linejoin:miter;stroke-miterlimit:4;stroke-opacity:1;stroke-dasharray:none"
       d="m 504.48416,713.27555 c -2.19094,8.86314 -30.53003,10.20454 -34.53568,11.81237 -33.7577,2.19168 -3.24163,0.33718 -46.24168,2.52886 -22.40797,12.04149 -45.61845,74.41861 8.2228,83.12735 42.01632,0.43218 30.85509,-0.28901 43.8192,0.0433"
       id="path2985"
       inkscape:connector-curvature="0"
       sodipodi:nodetypes="ccccc" />
    <path
       style="fill:none;stroke:#000000;stroke-width:0.92061162;stroke-linecap:square;stroke-linejoin:miter;stroke-miterlimit:4;stroke-opacity:1;stroke-dasharray:none"
       d="m 253.12753,714.03285 0.0432,4.50305 c 39.7644,4.04816 97.91389,39.1179 59.5682,87.64974 l -33.94907,-0.0666"
       id="path2999"
       inkscape:connector-curvature="0"
       sodipodi:nodetypes="cccc" />
    <g
       id="g3779"
       transform="translate(-0.50507627,134.16317)">
      <path
         sodipodi:nodetypes="cc"
         inkscape:connector-curvature="0"
         id="path3771"
         d="m 175.21686,561.46086 c 159.22479,11.72405 235.84828,14.23026 390.9044,-0.90555"
         style="fill:none;stroke:#000000;stroke-width:10;stroke-linecap:butt;stroke-linejoin:miter;stroke-miterlimit:4;stroke-opacity:1;stroke-dasharray:none" />
      <path
         sodipodi:nodetypes="ccc"
         inkscape:connector-curvature="0"
         id="path3773"
         d="m 566.50993,565.03011 c 7.34877,-2.92275 13.72057,-6.64392 18.92969,-11.70632 -6.2323,1.19936 -13.45081,2.15437 -20.39801,2.82399"
         style="fill:#000000;fill-opacity:1;stroke:#000000;stroke-width:1px;stroke-linecap:round;stroke-linejoin:miter;stroke-opacity:1" />
    </g>
    <path
       style="fill:none;stroke:#000000;stroke-width:1;stroke-linecap:butt;stroke-linejoin:miter;stroke-miterlimit:4;stroke-opacity:1;stroke-dasharray:none"
       d="m 290.55329,686.86034 c 19.61613,-104.16523 153.07198,-70.66945 156.19483,3.28298"
       id="path3791"
       inkscape:connector-curvature="0"
       sodipodi:nodetypes="cc" />
    <path
       sodipodi:type="arc"
       style="fill:#000000;fill-opacity:1;stroke:none"
       id="path3795"
       sodipodi:cx="300.01532"
       sodipodi:cy="676.08038"
       sodipodi:rx="10.101525"
       sodipodi:ry="9.0913725"
       d="m 310.11685,676.08038 a 10.101525,9.0913725 0 1 1 -20.20306,0 10.101525,9.0913725 0 1 1 20.20306,0 z"
       transform="matrix(0.9,0,0,0.52777776,126.11892,330.20499)" />
    <path
       sodipodi:type="arc"
       style="fill:#000000;fill-opacity:1;stroke:none"
       id="path3795-7"
       sodipodi:cx="300.01532"
       sodipodi:cy="676.08038"
       sodipodi:rx="10.101525"
       sodipodi:ry="9.0913725"
       d="m 310.11685,676.08038 a 10.101525,9.0913725 0 1 1 -20.20306,0 10.101525,9.0913725 0 1 1 20.20306,0 z"
       transform="matrix(0.9,0,0,0.52777776,66.394305,330.20495)" />
  </g>
</svg>
